#include "melodyLibrary.h" 
#include "melodyClass.h"
#include "pitches.h"


// Generated song file 
 
 
melody_t<224> MelodyLibrary::mario = { { { 
{NOTE_E5,125},
{NOTE_E5,250},
{NOTE_E5,125},
{REST,125},
{NOTE_C5,125},
{NOTE_E5,250},
{NOTE_G5,250},
{REST,250},
{NOTE_G4,250},
{REST,250},
{NOTE_C5,250},
{REST,125},
{NOTE_G4,250},
{REST,250},
{NOTE_E4,250},
{REST,125},
{NOTE_A4,250},
{NOTE_B4,250},
{NOTE_BB4,125},
{NOTE_A4,250},
{NOTE_G4,166},
{NOTE_E5,166},
{NOTE_G5,166},
{NOTE_A5,250},
{NOTE_F5,125},
{NOTE_G5,125},
{REST,125},
{NOTE_E5,250},
{REST,125},
{NOTE_C5,125},
{NOTE_D5,125},
{NOTE_B4,250},
{REST,500},
{NOTE_G5,125},
{NOTE_GB5,125},
{NOTE_F5,125},
{NOTE_DS5,250},
{NOTE_E5,125},
{REST,125},
{NOTE_GS4,125},
{NOTE_A4,125},
{NOTE_C5,125},
{REST,125},
{NOTE_A4,125},
{NOTE_C5,125},
{NOTE_D5,125},
{REST, 250},
{NOTE_G5,125},
{NOTE_GB5,125},
{NOTE_F5,125},
{NOTE_DS5,250},
{NOTE_E5,125},
{REST,125},
{NOTE_C6,125},
{REST,125},
{NOTE_C6,125},
{NOTE_C6,250},
{REST,500},
{NOTE_G5,125},
{NOTE_GB5,125},
{NOTE_F5,125},
{NOTE_DS5,250},
{NOTE_E5,125},
{REST,125},
{NOTE_GS4,125},
{NOTE_A4,125},
{NOTE_C5,125},
{REST,125},
{NOTE_A4,125},
{NOTE_C5,125},
{NOTE_D5,125},
{REST,250},
{NOTE_EB5,250},
{REST,125},
{NOTE_D5,125},
{REST,250},
{NOTE_C5,125},
{REST,750},
{NOTE_C5,125},
{NOTE_C5,250},
{NOTE_C5,125},
{REST,125},
{NOTE_C5,125},
{NOTE_D5,250},
{NOTE_E5,125},
{NOTE_C5,250},
{NOTE_A4,125},
{NOTE_G4,250},
{REST,250},
{NOTE_C5,125},
{NOTE_C5,250},
{NOTE_C5,125},
{REST,125},
{NOTE_C5,125},
{NOTE_D5,125},
{NOTE_E5,125},
{REST,1000},
{NOTE_C5,125},
{NOTE_C5,250},
{NOTE_C5,125},
{REST,125},
{NOTE_C5,125},
{NOTE_D5,250},
{NOTE_E5,125},
{NOTE_C5,250},
{NOTE_A4,125},
{NOTE_G4,250},
{REST,250},
{NOTE_E5,125},
{NOTE_E5,250},
{NOTE_E5,125},
{REST,125},
{NOTE_A4,125},
{NOTE_E5,250},
{NOTE_G5,250},
{REST,250},
{NOTE_G4,250},
{REST,250},
{NOTE_C5,250},
{REST,125},
{NOTE_G4,125},
{REST,250},
{NOTE_E4,250},
{REST,125},
{NOTE_A4,125},
{REST,125},
{NOTE_B4,125},
{REST,125},
{NOTE_BB4,125},
{NOTE_A4,250},
{NOTE_G4,166},
{NOTE_E5,166},
{NOTE_G5,166},
{NOTE_A5,250},
{NOTE_F5,125},
{NOTE_G5,125},
{REST,125},
{NOTE_E5,125},
{REST,125},
{NOTE_C5,125},
{NOTE_D5,125},
{NOTE_B4,125},
{REST,250},
{NOTE_E5,125},
{NOTE_C5,250},
{NOTE_G4,125},
{REST,250},
{NOTE_GS4,250},
{NOTE_A4,125},
{NOTE_F5,250},
{NOTE_F5,125},
{NOTE_A4,250},
{REST,250},
{NOTE_B4,125},
{NOTE_F5,250},
{NOTE_F5,125},
{NOTE_F5,166},
{NOTE_E5,166},
{NOTE_D5,166},
{NOTE_C5,125},
{NOTE_E4,250},
{NOTE_E4,125},
{NOTE_C3,250},
{NOTE_C5,125},
{NOTE_C5,250},
{NOTE_C5,125},
{REST,125},
{NOTE_C5,125},
{NOTE_D5,250},
{NOTE_E5,125},
{NOTE_C5,250},
{NOTE_A4,125},
{NOTE_G4,250},
{REST,250},
{NOTE_C5,125},
{NOTE_C5,250},
{NOTE_C5,125},
{REST,125},
{NOTE_C5,125},
{NOTE_D5,125},
{NOTE_E5,125},
{REST,1000},
{NOTE_C5,125},
{NOTE_C5,250},
{NOTE_C5,125},
{REST,125},
{NOTE_C5,125},
{NOTE_D5,250},
{NOTE_E5,125},
{NOTE_C5,250},
{NOTE_A4,125},
{NOTE_G4,250},
{REST,250},
{NOTE_E5,125},
{NOTE_E5,250},
{NOTE_E5,125},
{REST,125},
{NOTE_C5,125},
{NOTE_E5,250},
{NOTE_G5,250},
{REST,250},
{NOTE_G4,125},
{REST,250},
{NOTE_E5,125},
{NOTE_C5,250},
{NOTE_G4,125},
{REST,250},
{NOTE_GS4,250},
{NOTE_A4,125},
{NOTE_F5,250},
{NOTE_F5,125},
{NOTE_A4,250},
{REST,250},
{NOTE_B4,166},
{NOTE_A5,166},
{NOTE_A5,166},
{NOTE_A5,166},
{NOTE_G5,166},
{NOTE_F5,166},
{NOTE_E5,125},
{NOTE_C5,250},
{NOTE_A4,125},
{NOTE_G4,250},
{REST,250},
}},
false
 };