#include "melodyLibrary.h" 
#include "melodyClass.h"
#include "pitches.h"


 // Generated song file 
 
 
melody_t<208> MelodyLibrary::pirates = { { { 
{NOTE_E4,125},
{NOTE_G4,125},
{NOTE_A4,250},
{NOTE_A4,125},
{REST,125},
{NOTE_A4,125},
{NOTE_B4,125},
{NOTE_C5,250},
{NOTE_C5,125},
{REST,125},
{NOTE_C5,125},
{NOTE_D5,125},
{NOTE_B4,250},
{NOTE_B4,125},
{REST,125},
{NOTE_A4,125},
{NOTE_G4,125},
{NOTE_A4,375},
{REST,125},
{NOTE_E4,125},
{NOTE_G4,125},
{NOTE_A4,250},
{NOTE_A4,125},
{REST,125},
{NOTE_A4,125},
{NOTE_B4,125},
{NOTE_C5,250},
{NOTE_C5,125},
{REST,125},
{NOTE_C5,125},
{NOTE_D5,125},
{NOTE_B4,250},
{NOTE_B4,125},
{REST,125},
{NOTE_A4,125},
{NOTE_G4,125},
{NOTE_A4,375},
{REST,125},
{NOTE_E4,125},
{NOTE_G4,125},
{NOTE_A4,250},
{NOTE_A4,125},
{REST,125},
{NOTE_A4,125},
{NOTE_C5,125},
{NOTE_D5,250},
{NOTE_D5,125},
{REST,125},
{NOTE_D5,125},
{NOTE_E5,125},
{NOTE_F5,250},
{NOTE_F5,125},
{REST,125},
{NOTE_E5,125},
{NOTE_D5,125},
{NOTE_E5,125},
{NOTE_A4,250},
{REST,125},
{NOTE_A4,125},
{NOTE_B4,125},
{NOTE_C5,250},
{NOTE_C5,125},
{REST,125},
{NOTE_D5,250},
{NOTE_E5,125},
{NOTE_A4,250},
{REST,125},
{NOTE_A4,125},
{NOTE_C5,125},
{NOTE_B4,250},
{NOTE_B4,125},
{REST,125},
{NOTE_C5,125},
{NOTE_A4,125},
{NOTE_B4,375},
{REST,375},
{NOTE_A4,250},
{NOTE_A4,125},
{NOTE_E4,125},
{NOTE_G4,125},
{NOTE_A4,250},
{NOTE_A4,125},
{REST,125},
{NOTE_A4,125},
{NOTE_B4,125},
{NOTE_C5,250},
{NOTE_C5,125},
{REST,125},
{NOTE_C5,125},
{NOTE_D5,125},
{NOTE_B4,250},
{NOTE_B4,125},
{REST,125},
{NOTE_A4,125},
{NOTE_G4,125},
{NOTE_A4,375},
{REST,125},
{NOTE_E4,125},
{NOTE_G4,125},
{NOTE_A4,250},
{NOTE_A4,125},
{REST,125},
{NOTE_A4,125},
{NOTE_B4,125},
{NOTE_C5,250},
{NOTE_C5,125},
{REST,125},
{NOTE_C5,125},
{NOTE_D5,125},
{NOTE_B4,250},
{NOTE_B4,125},
{REST,125},
{NOTE_A4,125},
{NOTE_G4,125},
{NOTE_A4,375},
{REST,125},
{NOTE_E4,125},
{NOTE_G4,125},
{NOTE_A4,250},
{NOTE_A4,125},
{REST,125},
{NOTE_A4,125},
{NOTE_C5,125},
{NOTE_D5,250},
{NOTE_D5,125},
{REST,125},
{NOTE_D5,125},
{NOTE_E5,125},
{NOTE_F5,250},
{NOTE_F5,125},
{REST,125},
{NOTE_E5,125},
{NOTE_D5,125},
{NOTE_E5,125},
{NOTE_A4,250},
{REST,125},
{NOTE_A4,125},
{NOTE_B4,125},
{NOTE_C5,250},
{NOTE_C5,125},
{REST,125},
{NOTE_D5,250},
{NOTE_E5,125},
{NOTE_A4,250},
{REST,125},
{NOTE_A4,125},
{NOTE_C5,125},
{NOTE_B4,250},
{NOTE_B4,125},
{REST,125},
{NOTE_C5,125},
{NOTE_A4,125},
{NOTE_B4,375},
{REST,375},
{NOTE_E5,250},
{REST,125},
{REST,375},
{NOTE_F5,250},
{REST,125},
{REST,375},
{NOTE_E5,125},
{NOTE_E5,125},
{REST,125},
{NOTE_G5,125},
{REST,125},
{NOTE_E5,125},
{NOTE_D5,125},
{REST,125},
{REST,375},
{NOTE_D5,250},
{REST,125},
{REST,375},
{NOTE_C5,250},
{REST,125},
{REST,375},
{NOTE_B4,125},
{NOTE_C5,125},
{REST,125},
{NOTE_B4,125},
{REST,125},
{NOTE_A4,500},
{NOTE_E5,250},
{REST,125},
{REST,375},
{NOTE_F5,250},
{REST,125},
{REST,375},
{NOTE_E5,125},
{NOTE_E5,125},
{REST,125},
{NOTE_G5,125},
{REST,125},
{NOTE_E5,125},
{NOTE_D5,125},
{REST,125},
{REST,375},
{NOTE_D5,250},
{REST,125},
{REST,375},
{NOTE_C5,250},
{REST,125},
{REST,375},
{NOTE_B4,125},
{NOTE_C5,125},
{REST,125},
{NOTE_B4,125},
{REST,125},
{NOTE_A4,500},
} },
false 
 };


