#include "melodyLibrary.h" 
#include "melodyClass.h"
#include "pitches.h"


 // Generated song file 
 
 
melody_t<169> MelodyLibrary::surprise = { { { 
{NOTE_DS4,125},
{NOTE_E4,125},
{REST,250},
{NOTE_F4,125},
{NOTE_G4,125},
{REST,250},
{NOTE_DS4,125},
{NOTE_E4,125},
{NOTE_F4,125},
{NOTE_G4,125},
{NOTE_C5,125},
{NOTE_B4,125},
{NOTE_E4,125},
{NOTE_G4,125},
{NOTE_B4,125},
{NOTE_BB4,583},
{NOTE_A4,83},
{NOTE_G4,83},
{NOTE_E4,83},
{NOTE_D4,83},
{NOTE_E4,583},
{REST,375},
{NOTE_DS4,125},
{NOTE_E4,125},
{REST,250},
{NOTE_F4,125},
{NOTE_G4,125},
{REST,250},
{NOTE_DS4,125},
{NOTE_E4,125},
{NOTE_F4,125},
{NOTE_G4,125},
{NOTE_C5,125},
{NOTE_B4,125},
{NOTE_G4,125},
{NOTE_B4,125},
{NOTE_E5,1500},
{REST,375},
{NOTE_DS4,125},
{NOTE_E4,125},
{REST,250},
{NOTE_F4,125},
{NOTE_G4,125},
{REST,250},
{NOTE_DS4,125},
{NOTE_E4,125},
{NOTE_F4,125},
{NOTE_G4,125},
{NOTE_C5,125},
{NOTE_B4,125},
{NOTE_E4,125},
{NOTE_G4,125},
{NOTE_B4,125},
{NOTE_BB4,583},
{NOTE_A4,83},
{NOTE_G4,83},
{NOTE_E4,83},
{NOTE_D4,83},
{NOTE_E4,583},
{REST,750},
{NOTE_E5,125},
{NOTE_D5,125},
{NOTE_B4,125},
{NOTE_A4,125},
{NOTE_G4,125},
{NOTE_E4,125},
{NOTE_BB4,83},
{NOTE_A4,166},
{NOTE_BB4,83},
{NOTE_A4,166},
{NOTE_BB4,83},
{NOTE_A4,166},
{NOTE_BB4,83},
{NOTE_A4,166},
{NOTE_G4,83},
{NOTE_E4,83},
{NOTE_D4,83},
{NOTE_E4,166},
{NOTE_E4,583},
{NOTE_DS4,125},
{NOTE_E4,125},
{REST,250},
{NOTE_F4,125},
{NOTE_G4,125},
{REST,250},
{NOTE_DS4,125},
{NOTE_E4,125},
{NOTE_F4,125},
{NOTE_G4,125},
{NOTE_C5,125},
{NOTE_B4,125},
{NOTE_E4,125},
{NOTE_G4,125},
{NOTE_B4,125},
{NOTE_BB4,583},
{NOTE_A4,83},
{NOTE_G4,83},
{NOTE_E4,83},
{NOTE_D4,83},
{NOTE_E4,583},
{REST,375},
{NOTE_DS4,125},
{NOTE_E4,125},
{REST,250},
{NOTE_F4,125},
{NOTE_G4,125},
{REST,250},
{NOTE_DS4,125},
{NOTE_E4,125},
{NOTE_F4,125},
{NOTE_G4,125},
{NOTE_C5,125},
{NOTE_B4,125},
{NOTE_G4,125},
{NOTE_B4,125},
{NOTE_E5,1500},
{REST,375},
{NOTE_DS4,125},
{NOTE_E4,125},
{REST,250},
{NOTE_F4,125},
{NOTE_G4,125},
{REST,250},
{NOTE_DS4,125},
{NOTE_E4,125},
{NOTE_F4,125},
{NOTE_G4,125},
{NOTE_C5,125},
{NOTE_B4,125},
{NOTE_E4,125},
{NOTE_G4,125},
{NOTE_B4,125},
{NOTE_BB4,583},
{NOTE_A4,83},
{NOTE_G4,83},
{NOTE_E4,83},
{NOTE_D4,83},
{NOTE_E4,583},
{REST,750},
{NOTE_E5,125},
{NOTE_D5,125},
{NOTE_B4,125},
{NOTE_A4,125},
{NOTE_G4,125},
{NOTE_E4,125},
{NOTE_BB4,83},
{NOTE_A4,166},
{NOTE_BB4,83},
{NOTE_A4,166},
{NOTE_BB4,83},
{NOTE_A4,166},
{NOTE_BB4,83},
{NOTE_A4,166},
{NOTE_G4,83},
{NOTE_E4,83},
{NOTE_D4,83},
{NOTE_E4,166},
{NOTE_E4,583},
{NOTE_G4,83},
{NOTE_E4,83},
{NOTE_D4,83},
{NOTE_E4,166},
{NOTE_E4,583},
{NOTE_G4,83},
{NOTE_E4,83},
{NOTE_D4,83},
{NOTE_E4,166},
{NOTE_E4,583},
{NOTE_F5,1000},
}},
false
};