#include "melodyLibrary.h" 
#include "melodyClass.h"
#include "pitches.h"


 // Generated song file 
 
 
melody_t<60> MelodyLibrary::waydownwego = { { { 
{NOTE_F4,125},
{NOTE_AS5,250},
{NOTE_GS4,250},
{NOTE_CS4,250},
{REST,375},
{NOTE_AS5,250},
{NOTE_AS5,250},
{NOTE_CS6,250},
{NOTE_AS5,375},
{NOTE_AS5,250},
{NOTE_GS4,250},
{NOTE_F4,250},
{NOTE_GS4,250},
{NOTE_AS5,250},
{NOTE_CS6,250},
{NOTE_AS5,375},
{NOTE_AS5,250},
{NOTE_GS4,250},
{NOTE_F4,250},
{NOTE_GS4,250}, 
{NOTE_AS5,250},
{NOTE_CS6,250},
{NOTE_AS5,375},
{NOTE_AS5,250},
{NOTE_F5,375},
{NOTE_DS5,125},
{NOTE_CS5,125},
{NOTE_AS5,250},
{NOTE_AS5,375},
{NOTE_AS5,250},
{NOTE_GS4,250},
{NOTE_F4,250},
{NOTE_GS4,250},
{NOTE_AS5,250},
{NOTE_CS6,250},
{NOTE_AS5,375},
{NOTE_AS5,250},
{NOTE_GS4,250},
{NOTE_F4,250},
{NOTE_GS4,250},
{NOTE_AS5,250},
{NOTE_CS6,250},
{NOTE_AS5,375},
{NOTE_AS5,250},
{NOTE_GS4,250},
{NOTE_F4,250},
{NOTE_GS4,250},
{NOTE_AS5,250},
{NOTE_CS6,250},
{NOTE_AS5,375},
{NOTE_AS5,250},
{NOTE_F5,375},
{NOTE_DS5,125},
{NOTE_CS5,125},
{NOTE_AS5,250},
{NOTE_AS5,250},
{NOTE_F5,250},
{NOTE_F5,375},
{NOTE_F5,375},
{REST,500}
} }, 
false 
 };

